<?xml version="1.0" standalone="no"?>
<!DOCTYPE svg PUBLIC "-//W3C//DTD SVG 20010904//EN"
 "http://www.w3.org/TR/2001/REC-SVG-20010904/DTD/svg10.dtd">
<svg version="1.0" xmlns="http://www.w3.org/2000/svg"
 width="260.000000pt" height="260.000000pt" viewBox="0 0 260.000000 260.000000"
 preserveAspectRatio="xMidYMid meet">
<metadata>
Created by potrace 1.11, written by Peter Selinger 2001-2013
</metadata>
<g transform="translate(0.000000,260.000000) scale(0.100000,-0.100000)"
fill="#000000" stroke="none">
<path d="M1160 2373 c0 -3 50 -127 111 -276 61 -150 154 -378 206 -507 52
-129 99 -244 104 -255 24 -53 127 -310 125 -313 -2 -1 -20 4 -41 11 l-39 14
-123 304 c-389 958 -416 1020 -423 1012 -4 -4 -49 -107 -100 -228 -103 -246
-249 -590 -525 -1240 -315 -742 -290 -675 -254 -675 36 0 45 10 69 70 35 88
104 222 148 287 99 146 330 309 537 380 136 46 205 57 355 57 197 -2 303 -23
455 -94 119 -54 198 -111 300 -214 119 -120 189 -227 274 -418 27 -63 32 -68
60 -68 17 0 31 5 31 11 0 6 -40 106 -89 222 -107 255 -728 1729 -777 1843 -34
78 -36 81 -69 82 -19 1 -35 -3 -35 -9 0 -6 23 -66 51 -132 147 -350 192 -458
364 -872 103 -247 203 -486 221 -529 19 -44 33 -80 31 -82 -1 -1 -28 21 -59
50 -54 49 -60 60 -128 226 -39 96 -77 189 -85 205 -19 43 -424 1019 -449 1085
-21 52 -24 55 -59 56 -20 1 -37 -2 -37 -6 0 -4 496 -1211 587 -1428 4 -9 -13
-4 -44 11 -44 23 -52 32 -71 82 -12 31 -112 276 -221 543 -110 268 -228 557
-263 642 l-63 155 -38 1 c-20 1 -37 -1 -37 -3z m-287 -880 c-140 -323 -261
-602 -269 -620 -8 -18 -22 -37 -31 -42 -10 -5 -34 -25 -53 -45 -42 -43 -53
-45 -35 -8 7 15 93 214 190 442 98 228 187 438 199 465 13 28 65 151 117 273
l94 224 22 -50 22 -50 -256 -589z m327 405 c0 -9 -13 -45 -28 -80 -16 -34 -36
-81 -46 -103 -10 -22 -86 -197 -170 -389 l-153 -349 -47 -24 -47 -24 14 33
c23 53 387 888 413 946 13 29 24 58 24 65 1 17 39 -55 40 -75z m62 -150 c16
-47 23 -25 -79 -258 -8 -19 -24 -53 -34 -75 -10 -22 -50 -112 -87 -200 -70
-163 -76 -170 -139 -190 -23 -6 -23 -6 5 57 160 373 308 708 314 708 3 0 13
-19 20 -42z m163 -399 c61 -144 112 -266 114 -271 2 -6 -17 -7 -50 -2 -68 11
-298 10 -363 0 -31 -5 -47 -4 -45 2 22 60 225 532 229 532 4 0 55 -118 115
-261z"/>
<path d="M1105 939 c-358 -73 -639 -311 -774 -656 -11 -29 -17 -54 -13 -56 18
-9 72 -6 72 4 0 24 82 184 126 246 181 253 460 402 764 406 187 3 302 -22 457
-100 206 -104 374 -288 462 -505 22 -55 25 -57 57 -56 19 1 34 5 34 9 0 17
-48 136 -75 184 -126 228 -339 408 -580 489 -155 53 -372 67 -530 35z"/>
<path d="M1133 809 c-217 -44 -410 -166 -544 -344 -49 -64 -131 -224 -123
-237 3 -5 20 -8 37 -6 28 3 35 11 72 81 109 213 301 367 530 426 338 87 699
-54 892 -351 24 -37 52 -86 62 -110 16 -39 22 -44 55 -46 23 -2 36 2 36 10 0
27 -83 177 -138 248 -132 171 -336 294 -557 336 -81 15 -228 12 -322 -7z"/>
<path d="M1125 665 c-175 -48 -304 -134 -414 -274 -40 -52 -91 -140 -91 -159
0 -5 15 -9 34 -10 31 -1 36 3 71 62 93 160 291 297 465 322 284 42 554 -82
697 -319 35 -59 40 -63 75 -64 l37 0 -14 34 c-24 56 -115 181 -167 228 -150
135 -304 196 -503 200 -88 2 -126 -2 -190 -20z"/>
</g>
</svg>
