<svg fill="none" height="388" viewBox="0 0 409 388" width="409" xmlns="http://www.w3.org/2000/svg"><path d="m203.99 255.89c83.9 0 155.06 55.64 178.64 132h-13.22c-23.17-69.32-88.52-119.44-165.42-119.44s-142.28 50.12-165.41 119.44h-13.23c23.59-76.37 94.74-132 178.64-132zm.7 23.79c-70.15 0-130 45.19-152.51 108.21h13.34c21.9-55.94 76-95.65 139.17-95.65s117.27 39.7 139.17 95.65h13.38c-22.5-63-82.36-108.21-152.51-108.21zm-.11 25c-55.76 0-103.78 34.27-124.81 83.17h13.57c20.16-41.77 62.42-70.61 111.2-70.61s91 28.83 111.2 70.61h13.6c-21-48.9-69-83.17-124.8-83.17zm43.34-67.83-42.45-101-42.92 100.66c38.63-7.52 70.51-3 85.37.38zm-117.44 8.85c5.17-1.94 11.58-4.25 16.94-5.79l52.32-119.75-6.91-16.79zm-34.58 16.67c5.793-3.473 11.757-6.673 17.89-9.6l72.54-165.54-6.74-16.72zm-43 34.09c7.2642-7.451 15.0652-14.36 23.34-20.67l96.49-222.42-7.74-19.26zm355.58 91.4h-13.1c-33.11-90.5-100.48-143-190.86-143-58.49 0-110.43 26.51-149 65.09-23.47 23.47-42.89 77.88-42.89 77.88h-12.63l164.51-387.7799969 97.73 240.3499969c5.34 1.51 10.61 3.19 15.77 5.1l-100.14-245.4499969h13.37l103.4 252.4599969c6.113 2.887 12.06 6.05 17.84 9.49l-107.89-262h13.36l114.1 275.12c14.95 11.81 22.92 20.94 22.92 20.94l-123.67-296.0099969h13.36z" fill="#fff"/></svg>