<svg xmlns="http://www.w3.org/2000/svg" id="Layer_1" data-name="Layer 1" viewBox="0 0 856.24 124.87"><title>Artboard 1</title><path d="M62,53.33l15.4,31.83H46.64ZM60.12.65,0,124.87H27.44L36,107.09l52,0,8.59,17.74h27.42L64,.65Z" style="fill:#fff"/><polygon points="295.41 0.65 237.66 73.81 237.31 73.35 179.93 0.65 176.33 0.65 176.33 124.87 201.18 124.87 201.18 68.25 235.55 111.15 239.94 111.15 274.32 68.25 274.32 124.87 299.17 124.87 299.17 0.65 295.41 0.65" style="fill:#fff"/><polygon points="534.52 0 534.52 124.87 627.99 124.87 627.99 99.88 560.8 99.88 560.8 0 534.52 0" style="fill:#fff"/><polygon points="683.58 124.17 683.8 124.17 683.8 124.38 710.89 124.86 710.89 73.77 762.4 73.77 762.4 49.78 762.17 49.78 762.17 49.58 710.89 49.58 710.89 23.99 777.85 23.99 777.85 -0.01 777.64 -0.01 777.64 -0.21 683.58 -0.7 683.58 124.17" style="fill:#fff"/><polygon points="829.67 0 829.67 124.87 856.24 124.83 856.24 -0.03 829.67 0" style="fill:#fff"/><path d="M415.56,52.89l15.52,32H400Zm-1.94-53L353,124.86h27.64L389.34,107l52.44,0,8.65,17.85h27.64L417.5-.14Z" style="fill:#fff"/></svg>